#!OML:ASF F:\twosubjects\two\wednesday\Session 1\rory1.ASF
:FULLY-SPECIFIED
:DEGREES
99
root 1.76959 18.4457 -0.922187 3.85607 -1.52239 -3.9239
lowerback 2.34667 1.69155 5.1922
upperback 1.17279 2.36387 1.89035
thorax 0.0208629 1.19735 -1.0158
lowerneck -13.2865 -2.03358 -3.49761
upperneck 13.7193 -1.97416 -0.499328
head 6.3903 -1.17852 0.226657
rclavicle 3.15074e-014 1.19271e-015
rhumerus -7.79417 4.60938 -83.3375
rradius 43.3992
rwrist -2.90367
rhand -18.5543 35.8861
rfingers 7.12502
rthumb 7.73533 6.04762
lclavicle 3.15074e-014 1.19271e-015
lhumerus -39.1362 -37.2868 74.5095
lradius 86.8043
lwrist 5.3325
lhand -27.8536 7.39103
lfingers 7.12502
lthumb -1.24454 37.3671
rfemur 0.104084 2.70322 31.0151
rtibia 19.0163
rfoot -12.0319 -1.71301
rtoes 0.63879
lfemur -32.2822 -3.76299 -10.4001
ltibia 33.5378
lfoot -8.92473 8.46415
ltoes -19.1216
100
root 1.78222 18.4672 -0.739291 4.02626 -1.56401 -3.61991
lowerback 2.13252 1.66033 5.06621
upperback 1.25621 2.30094 1.66965
thorax 0.22713 1.17176 -1.16199
lowerneck -13.7293 -1.95246 -3.0367
upperneck 13.6782 -1.90061 -0.743986
head 6.44388 -1.13928 0.0764926
rclavicle 6.95746e-016 1.66979e-014
rhumerus -7.46712 5.08718 -83.4316
rradius 44.5334
rwrist -3.10047
rhand -18.696 36.2935
rfingers 7.12502
rthumb 7.59862 6.45003
lclavicle 6.95746e-016 1.66979e-014
lhumerus -39.0268 -37.1803 74.2408
lradius 86.7933
lwrist 5.5988
lhand -28.2569 7.20578
lfingers 7.12502
lthumb -1.63401 37.1793
rfemur 1.17435 2.11989 30.495
rtibia 17.8135
rfoot -11.6038 -1.02605
rtoes -0.0143052
lfemur -32.0979 -4.48142 -10.5611
ltibia 30.5161
lfoot -8.75638 9.11456
ltoes -17.6737
101
root 1.78944 18.4952 -0.564891 4.32735 -1.82523 -3.45642
lowerback 1.97592 1.66463 5.0358
upperback 1.22133 2.29696 1.38778
thorax 0.289154 1.17153 -1.42939
lowerneck -14.1657 -1.84303 -2.3305
upperneck 13.7693 -1.83567 -1.03701
head 6.53595 -1.09718 -0.130563
rclavicle -4.47266e-016 0
rhumerus -7.24937 5.44576 -83.8468
rradius 45.6047
rwrist -3.39436
rhand -18.8939 36.4918
rfingers 7.12502
rthumb 7.40759 6.64148
lclavicle -4.47266e-016 0
lhumerus -39.2758 -37.1612 73.8877
lradius 86.9742
lwrist 5.76775
lhand -28.4313 6.92534
lfingers 7.12502
lthumb -1.80248 36.8975
rfemur 2.04125 2.2966 30.205
rtibia 16.6247
rfoot -11.0224 -0.708235
rtoes 1.30347
lfemur -32.0265 -5.12387 -10.4587
ltibia 27.5682
lfoot -8.84576 9.80057
ltoes -15.2502
102
root 1.78847 18.5046 -0.398781 4.55802 -2.31591 -3.86564
lowerback 1.96719 1.68355 5.30347
upperback 1.16195 2.32802 1.40284
thorax 0.245396 1.18641 -1.56401
lowerneck -14.4089 -1.68275 -1.86277
upperneck 13.7187 -1.67739 -1.24501
head 6.55355 -1.01411 -0.259848
rclavicle -2.18166e-014 -2.54444e-014
rhumerus -7.11277 6.07795 -84.1834
rradius 46.7106
rwrist -3.92806
rhand -19.0094 36.655
rfingers 7.12502
rthumb 7.29606 6.80075
lclavicle -2.18166e-014 -2.54444e-014
lhumerus -39.5311 -36.8474 73.6579
lradius 87.1349
lwrist 6.13155
lhand -28.0438 7.34531
lfingers 7.12502
lthumb -1.42822 37.3203
rfemur 2.97389 3.05775 30.6474
rtibia 15.4442
rfoot -10.3458 -0.802625
rtoes 1.20125
lfemur -31.9167 -5.70772 -9.61713
ltibia 24.8192
lfoot -9.14568 10.5448
ltoes -15.2882
103
root 1.78591 18.5057 -0.225022 4.71491 -2.80984 -4.20622
lowerback 1.82924 1.70964 5.29543
upperback 1.22836 2.34991 1.62719
thorax 0.382691 1.20041 -1.3235
lowerneck -14.3485 -1.53139 -1.89753
upperneck 13.2387 -1.46375 -1.29896
head 6.38891 -0.913287 -0.247253
rclavicle -3.9906e-014 -2.98177e-014
rhumerus -6.89793 7.05884 -84.0719
rradius 47.8367
rwrist -4.6095
rhand -18.9283 36.6165
rfingers 7.12502
rthumb 7.37438 6.76503
lclavicle -3.9906e-014 -2.98177e-014
lhumerus -39.7017 -36.1127 73.705
lradius 87.1654
lwrist 6.15611
lhand -27.8452 6.94764
lfingers 7.12502
lthumb -1.23639 36.9238
rfemur 4.09871 3.6321 30.9944
rtibia 14.1516
rfoot -9.66886 -0.674973
rtoes -0.456822
lfemur -31.7726 -6.40407 -8.819
ltibia 22.3779
lfoot -9.78361 11.2081
ltoes -15.1161
104
root 1.78843 18.5132 -0.0467449 4.9222 -3.10588 -4.24478
lowerback 1.621 1.73576 5.13626
upperback 1.2966 2.36488 1.75221
thorax 0.558488 1.21104 -1.0983
lowerneck -14.4475 -1.47657 -2.07808
upperneck 13.0108 -1.34448 -1.34304
head 6.33397 -0.866679 -0.220117
rclavicle -2.70844e-014 1.86858e-014
rhumerus -6.71586 7.8534 -83.7826
rradius 48.8521
rwrist -5.12435
rhand -19.0518 36.7693
rfingers 7.12502
rthumb 7.25513 6.91366
lclavicle -2.70844e-014 1.86858e-014
lhumerus -39.9425 -35.5861 73.8081
lradius 87.319
lwrist 5.79601
lhand -27.7449 6.65765
lfingers 7.12502
lthumb -1.13956 36.6343
rfemur 5.20587 3.90585 30.9462
rtibia 12.702
rfoot -8.87399 -0.230587
rtoes -0.601893
lfemur -31.7795 -7.17811 -8.39329
ltibia 20.3001
lfoot -10.5273 11.5408
ltoes -15.3258
105
root 1.79535 18.5177 0.133797 4.9847 -3.1379 -4.47202
lowerback 1.67752 1.7022 5.3863
upperback 1.25701 2.32865 1.77263
thorax 0.49363 1.19253 -1.21879
lowerneck -14.6031 -1.42313 -1.98506
upperneck 13.0975 -1.27997 -1.38221
head 6.38687 -0.835424 -0.243252
rclavicle 1.61513e-014 3.26007e-014
rhumerus -6.80776 8.23137 -83.7592
rradius 49.7907
rwrist -5.37975
rhand -19.3018 37.0949
rfingers 7.12502
rthumb 7.01385 7.2311
lclavicle 1.61513e-014 3.26007e-014
lhumerus -40.3289 -35.4604 73.7466
lradius 87.6124
lwrist 5.60117
lhand -27.4761 7.41095
lfingers 7.12502
lthumb -0.879966 37.3889
rfemur 6.53397 3.89146 31.1217
rtibia 11.1591
rfoot -8.02859 0.141832
rtoes 0.386268
lfemur -31.8317 -7.94165 -7.8755
ltibia 18.6725
lfoot -11.1049 11.549
ltoes -14.0164
106
root 1.80755 18.5267 0.330232 4.96449 -3.11302 -4.34198
lowerback 1.60053 1.65374 5.37451
upperback 1.20348 2.2613 1.62511
thorax 0.483077 1.15847 -1.36169
lowerneck -14.3709 -1.33774 -1.81919
upperneck 12.9022 -1.22827 -1.2597
head 6.28414 -0.789415 -0.223188
rclavicle 7.65321e-015 1.31198e-014
rhumerus -7.02453 8.6001 -83.8501
rradius 50.6093
rwrist -5.74309
rhand -19.5515 37.1889
rfingers 7.12502
rthumb 6.77277 7.31717
lclavicle 7.65321e-015 1.31198e-014
lhumerus -40.7792 -35.3476 73.6067
lradius 87.8636
lwrist 5.54282
lhand -27.8733 7.99938
lfingers 7.12502
lthumb -1.26351 37.9754
rfemur 8.04576 3.85828 30.8601
rtibia 9.55167
rfoot -7.22247 0.428653
rtoes -0.424712
lfemur -31.9402 -8.79916 -7.82701
ltibia 17.5339
lfoot -11.6416 11.4828
ltoes -13.3148
107
root 1.81788 18.5387 0.526051 5.02801 -3.29496 -4.08811
lowerback 1.35558 1.70971 5.14258
upperback 1.25709 2.31459 1.51169
thorax 0.674021 1.18905 -1.33983
lowerneck -14.483 -1.37655 -1.8937
upperneck 12.8163 -1.28149 -1.14377
head 6.277 -0.808754 -0.179554
rclavicle -5.25288e-014 -3.57812e-015
rhumerus -7.05353 8.81822 -83.8228
rradius 51.2881
rwrist -6.00343
rhand -19.7261 37.0909
rfingers 7.12502
rthumb 6.60423 7.21387
lclavicle -5.25288e-014 -3.57812e-015
lhumerus -40.7811 -35.2031 73.5298
lradius 87.8115
lwrist 5.3333
lhand -28.3697 7.77852
lfingers 7.12502
lthumb -1.74301 37.7511
rfemur 9.42681 4.04022 30.4571
rtibia 7.98736
rfoot -6.42605 0.729131
rtoes -3.09701
lfemur -32.0777 -9.70822 -7.80895
ltibia 16.7266
lfoot -12.4682 11.577
ltoes -12.3073
108
root 1.82975 18.5335 0.70783 4.98595 -3.51336 -4.24887
lowerback 1.45511 1.75881 5.31561
upperback 1.32871 2.38495 1.52221
thorax 0.703293 1.22716 -1.42709
lowerneck -14.6995 -1.41724 -1.89745
upperneck 12.7403 -1.32657 -1.17176
head 6.2893 -0.83294 -0.193488
rclavicle -2.67862e-014 -8.74653e-015
rhumerus -7.02765 8.99869 -83.8307
rradius 51.8355
rwrist -6.25994
rhand -19.768 37.0962
rfingers 7.12502
rthumb 6.56375 7.21788
lclavicle -2.67862e-014 -8.74653e-015
lhumerus -40.8043 -35.1086 73.6151
lradius 87.7951
lwrist 5.27355
lhand -28.1445 7.28905
lfingers 7.12502
lthumb -1.52547 37.2633
rfemur 10.79 4.25619 30.5686
rtibia 6.66385
rfoot -5.75252 0.948157
rtoes -4.47339
lfemur -32.0857 -10.1762 -7.52512
ltibia 16.1531
lfoot -13.3021 11.4017
ltoes -12.1173
109
root 1.8481 18.5169 0.896021 4.84096 -3.71582 -4.36406
lowerback 1.59849 1.78421 5.49478
upperback 1.41037 2.4268 1.51978
thorax 0.717718 1.25112 -1.53235
lowerneck -14.5252 -1.4256 -1.91654
upperneck 12.4031 -1.34268 -1.17262
head 6.1525 -0.838406 -0.189092
rclavicle 1.90336e-014 -2.20651e-014
rhumerus -7.10662 9.3704 -83.7353
rradius 52.4072
rwrist -6.68396
rhand -19.756 37.1623
rfingers 7.12502
rthumb 6.57535 7.28434
lclavicle 1.90336e-014 -2.20651e-014
lhumerus -40.9455 -35.1127 73.7713
lradius 88.0019
lwrist 5.54467
lhand -27.5628 8.26834
lfingers 7.12502
lthumb -0.963643 38.2459
rfemur 12.2083 4.43793 30.6239
rtibia 5.52744
rfoot -5.20788 1.1966
rtoes -5.74645
lfemur -32.0037 -10.0233 -7.70185
ltibia 15.9059
lfoot -13.4788 10.8932
ltoes -13.1427
110
root 1.85752 18.4988 1.09204 4.67073 -3.935 -4.29089
lowerback 1.732 1.83107 5.38113
upperback 1.47352 2.49474 1.49693
thorax 0.708407 1.28502 -1.4963
lowerneck -14.4868 -1.47482 -2.09134
upperneck 12.2541 -1.39098 -1.07038
head 6.10093 -0.860392 -0.131713
rclavicle -1.35671e-014 7.35503e-015
rhumerus -7.51983 9.75561 -83.5654
rradius 53.3107
rwrist -6.97278
rhand -19.7582 36.888
rfingers 7.12502
rthumb 6.57329 7.01
lclavicle -1.35671e-014 7.35503e-015
lhumerus -40.8742 -35.1456 73.8062
lradius 87.9984
lwrist 5.70468
lhand -27.4718 9.15234
lfingers 7.12502
lthumb -0.87575 39.1303
rfemur 13.4608 4.61717 30.5027
rtibia 4.74379
rfoot -4.74587 1.48083
rtoes -8.16389
lfemur -31.7423 -9.74882 -8.19365
ltibia 15.8827
lfoot -13.1629 10.7293
ltoes -15.0457
111
root 1.85871 18.4777 1.28983 4.48595 -4.004 -4.13544
lowerback 1.92933 1.81199 5.11312
upperback 1.46638 2.48028 1.40798
thorax 0.581423 1.27326 -1.44608
lowerneck -14.5866 -1.47826 -2.09337
upperneck 12.285 -1.41379 -0.927782
head 6.12849 -0.860387 -0.0890571
rclavicle 2.16178e-015 2.18663e-015
rhumerus -8.13232 10.0516 -83.6121
rradius 54.1302
rwrist -7.1328
rhand -19.9888 36.6202
rfingers 7.12502
rthumb 6.35067 6.73543
lclavicle 2.16178e-015 2.18663e-015
lhumerus -41.1062 -35.2286 73.7624
lradius 87.9898
lwrist 5.91133
lhand -28.1388 8.52444
lfingers 7.12502
lthumb -1.52001 38.4988
rfemur 14.2243 4.63887 30.3231
rtibia 4.89199
rfoot -4.66011 1.71977
rtoes -8.88229
lfemur -31.3378 -9.31386 -8.89523
ltibia 15.9436
lfoot -12.3755 10.4804
ltoes -16.9361
